<?xml version="1.0" encoding="UTF-8"?>
<svg width="29px" height="50px" viewBox="0 0 29 50" version="1.1" xmlns="http://www.w3.org/2000/svg" xmlns:xlink="http://www.w3.org/1999/xlink">
    <title>73F4208C-7821-433D-AAD1-5285992D8353@1x</title>
    <g id="Page-1" stroke="none" stroke-width="1" fill="none" fill-rule="evenodd">
        <g transform="translate(-178.000000, -44.000000)" fill-rule="nonzero">
            <g id="beer-icon" transform="translate(178.000000, 44.000000)">
                <polygon id="Rectangle-path" fill="#3FC378" points="1.6165034 3.8265625 27.3834966 3.8265625 27.3834966 46.1735352 1.6165034 46.1735352"></polygon>
                <polygon id="Rectangle-path" fill="#95E0B9" points="1.6165034 3.8265625 3.67787075 3.8265625 3.67787075 46.1735352 1.6165034 46.1735352"></polygon>
                <polygon id="Rectangle-path" fill="#2B8C4A" points="25.3221293 3.8265625 27.3834966 3.8265625 27.3834966 46.1735352 25.3221293 46.1735352"></polygon>
                <polygon id="Shape" fill="#FFFFFF" points="23.7761531 49.234668 5.22384694 49.234668 3.16247959 46.1734375 25.8375204 46.1734375"></polygon>
                <polygon id="Shape" fill="#FFFFFF" points="25.8375204 3.8265625 3.16247959 3.8265625 5.22384694 0.765332031 23.7761531 0.765332031"></polygon>
                <ellipse id="Oval" fill="#FFFFFF" cx="14.5" cy="25" rx="7.73007823" ry="7.65302734"></ellipse>
                <path d="M26.2512143,3.06123047 L25.2205306,1.53066406 L26.3528129,1.53066406 L26.3528129,0 L24.1898469,0 L4.81015306,0 L2.64718707,0 L2.64718707,1.53056641 L3.77946939,1.53056641 L2.74878571,3.06113281 L0.0704285714,3.06113281 L0.0704285714,4.59179688 L1.71810204,4.59179688 L27.2817993,4.59179688 L28.9295714,4.59179688 L28.9295714,3.06123047 L26.2512143,3.06123047 Z M5.63754082,1.53056641 L6.87161905,1.53056641 L5.84093537,3.06113281 L4.60685714,3.06113281 L5.63754082,1.53056641 Z M7.69890816,3.06123047 L8.72959184,1.53056641 L23.3624592,1.53056641 L24.3931429,3.06113281 L7.69890816,3.06113281 L7.69890816,3.06123047 Z" id="Shape" fill="#000000"></path>
                <path d="M28.156534,5.86738281 L26.6105578,5.86738281 L26.6105578,45.4082031 L2.38944218,45.4082031 L2.38944218,5.86738281 L0.843465986,5.86738281 L0.843465986,45.4082031 L0.0704285714,45.4082031 L0.0704285714,46.9387695 L2.74878571,46.9387695 L4.81015306,50 L24.1897483,50 L26.2511156,46.9387695 L28.9295714,46.9387695 L28.9295714,45.4082031 L28.156534,45.4082031 L28.156534,5.86738281 Z M4.60685714,46.9387695 L21.3011905,46.9387695 L20.2705068,48.4693359 L5.63754082,48.4693359 L4.60685714,46.9387695 Z M23.3624592,48.4694336 L22.128381,48.4694336 L23.1590646,46.9388672 L24.3931429,46.9388672 L23.3624592,48.4694336 Z" id="Shape" fill="#000000"></path>
                <path d="M23.0031156,25 C23.0031156,20.3581055 19.1885306,16.5816406 14.5,16.5816406 C9.81137075,16.5816406 5.99688435,20.3581055 5.99688435,25 C5.99688435,29.6418945 9.81137075,33.4183594 14.5,33.4183594 C19.1885306,33.4183594 23.0031156,29.6418945 23.0031156,25 Z M7.54286054,25 C7.54286054,21.2020508 10.6638129,18.112207 14.5,18.112207 C18.3361871,18.112207 21.4571395,21.2020508 21.4571395,25 C21.4571395,28.7979492 18.3361871,31.887793 14.5,31.887793 C10.6638129,31.887793 7.54286054,28.7979492 7.54286054,25 Z" id="Shape" fill="#000000"></path>
            </g>
        </g>
    </g>
</svg>