<?xml version="1.0" encoding="UTF-8"?>
<svg width="35px" height="35px" viewBox="0 0 35 35" version="1.1" xmlns="http://www.w3.org/2000/svg" xmlns:xlink="http://www.w3.org/1999/xlink">
    <title>2EDB46BF-1898-44C9-B1E5-FC8E80CE75B7@1x</title>
    <g id="Page-1" stroke="none" stroke-width="1" fill="none" fill-rule="evenodd">
        <g transform="translate(-424.000000, -59.000000)" fill="#FE5375" fill-rule="nonzero">
            <path d="M445.04241,59 C452.674415,59 458.883699,65.2241388 458.883699,72.8748206 C458.883699,80.5251675 452.674415,86.7496411 445.04241,86.7496411 C442.160017,86.7496411 439.4807,85.86206 437.262105,84.345286 L435.119,86.493 L438.913245,90.2961482 L435.253066,93.9650837 L431.459,90.161 L427.662798,93.9670696 L424.002619,90.2981341 L427.798,86.493 L424,82.6850964 L427.660179,79.0161609 L431.459,82.824 L433.601549,80.6771901 C432.086799,78.4525359 431.200369,75.7654617 431.200369,72.8748206 C431.200369,65.2241388 437.409653,59 445.04241,59 Z M445.04241,64.1892943 C440.264116,64.1892943 436.377195,68.0855144 436.377195,72.8752392 C436.377195,77.6642943 440.264116,81.5611842 445.04241,81.5611842 C449.820369,81.5611842 453.707625,77.6645455 453.707625,72.8752392 C453.70729,68.0855144 449.820369,64.1892943 445.04241,64.1892943 Z" id="female-icon"></path>
        </g>
    </g>
</svg>