<?xml version="1.0" encoding="UTF-8"?>
<svg width="28px" height="50px" viewBox="0 0 28 50" version="1.1" xmlns="http://www.w3.org/2000/svg" xmlns:xlink="http://www.w3.org/1999/xlink">
    <title>16631F6C-01C7-4D6D-B743-BFA1594DDEB2@1x</title>
    <g id="Page-1" stroke="none" stroke-width="1" fill="none" fill-rule="evenodd">
        <g transform="translate(-55.000000, -44.000000)" fill-rule="nonzero">
            <g id="liquor-icon" transform="translate(55.000000, 44.000000)">
                <path d="M12.730731,47.9512695 L12.7310207,20.9500977 C12.7310207,20.2910156 12.4769931,19.6578125 12.0230069,19.1850586 L9.64802759,16.7121094 C9.25651034,16.3044922 9.03753103,15.7585938 9.03753103,15.190332 L9.03753103,6.79560547 L4.44881379,6.79560547 L4.44881379,15.1915039 C4.44881379,15.7597656 4.22983448,16.3056641 3.83831724,16.7133789 L1.46362759,19.1884766 C1.01012414,19.6611328 0.756482759,20.2939453 0.756482759,20.9525391 L0.756482759,47.9511719 C0.756482759,48.677832 1.33888276,49.2669922 2.05742069,49.2669922 L11.4298897,49.2669922 C12.148331,49.2669922 12.730731,48.6780273 12.730731,47.9512695 Z" id="Path" fill="#E5F9F6"></path>
                <path d="M3.83831724,16.7133789 L1.46362759,19.1884766 C1.01012414,19.6611328 0.756482759,20.2939453 0.756482759,20.9525391 L0.756482759,47.9512695 C0.756482759,48.6779297 1.33888276,49.2670898 2.05742069,49.2670898 L11.4298897,49.2670898 C12.148331,49.2670898 12.7308276,48.6780273 12.7308276,47.9512695 L12.7311172,20.9501953 C12.7311172,20.2911133 12.4770897,19.6579102 12.0231034,19.1851563 L9.64812414,16.712207 C9.27108966,16.3196289 9.05626207,15.7986328 9.04062069,15.253125 L4.44591724,15.253125 C4.43056552,15.7990234 4.21564138,16.3206055 3.83831724,16.7133789 Z" id="Path" fill="#CDEAE0"></path>
                <path d="M12.0230069,19.1851563 L9.64802759,16.712207 C9.2709931,16.3197266 9.05616552,15.7986328 9.04052414,15.253125 L4.44582069,15.253125 C4.43384828,15.6824219 4.29664828,16.0955078 4.05584828,16.4439453 C4.12121379,16.5380859 4.19217931,16.6287109 4.27241379,16.712207 L6.6473931,19.1851563 C7.10147586,19.6579102 7.3554069,20.2911133 7.3554069,20.9501953 L7.35511724,47.9513672 C7.35511724,48.6780273 6.77271724,49.2671875 6.05417931,49.2671875 L11.4296,49.2671875 C12.1480414,49.2671875 12.7305379,48.678125 12.7305379,47.9513672 L12.7308277,20.950293 C12.7310207,20.2910156 12.4769931,19.6579102 12.0230069,19.1851563 Z" id="SVGCleanerId_0" fill="#BFD8CE"></path>
                <path d="M12.0230069,19.1851563 L9.64802759,16.712207 C9.2709931,16.3197266 9.05616552,15.7986328 9.04052414,15.253125 L4.44582069,15.253125 C4.43384828,15.6824219 4.29664828,16.0955078 4.05584828,16.4439453 C4.12121379,16.5380859 4.19217931,16.6287109 4.27241379,16.712207 L6.6473931,19.1851563 C7.10147586,19.6579102 7.3554069,20.2911133 7.3554069,20.9501953 L7.35511724,47.9513672 C7.35511724,48.6780273 6.77271724,49.2671875 6.05417931,49.2671875 L11.4296,49.2671875 C12.1480414,49.2671875 12.7305379,48.678125 12.7305379,47.9513672 L12.7308277,20.950293 C12.7310207,20.2910156 12.4769931,19.6579102 12.0230069,19.1851563 Z" id="SVGCleanerId_0_1_" fill="#BFD8CE"></path>
                <path d="M25.3096828,49.2670898 L18.6906759,49.2670898 C18.1440966,49.2670898 17.6908828,48.8387695 17.6539034,48.287207 L16.7578069,34.9294922 C16.7344414,34.5810547 17.0075862,34.2854492 17.3528552,34.2854492 L26.6476,34.2854492 C26.992869,34.2854492 27.2660138,34.5810547 27.2426483,34.9294922 L26.3465517,48.287207 C26.3094759,48.8387695 25.8563586,49.2670898 25.3096828,49.2670898 Z" id="Path" fill="#E5F9F6"></path>
                <path d="M26.6475034,34.2853516 L21.9354897,34.2853516 L20.9304828,49.2670898 L25.3095862,49.2670898 C25.8561655,49.2670898 26.3093793,48.8387695 26.3463586,48.287207 L27.2424552,34.9294922 C27.2659172,34.580957 26.9927724,34.2853516 26.6475034,34.2853516 Z" id="Path" fill="#D6E5E2"></path>
                <path d="M16.9506207,37.8032227 L17.6539034,48.2871094 C17.6908828,48.8386719 18.1440966,49.2669922 18.6906759,49.2669922 L25.3096828,49.2669922 C25.8562621,49.2669922 26.3094759,48.8386719 26.3464552,48.2871094 L27.0497379,37.8032227 L16.9506207,37.8032227 Z" id="Path" fill="#CDEAE0"></path>
                <path d="M3.93091034,26.9963867 C5.75091034,25.9388672 7.73543448,25.9389648 9.5562069,26.9986328 C9.91315862,27.2063477 10.3604828,26.9577148 10.3774759,26.5415039 L10.4290345,25.2736328 C10.4380138,25.0523438 10.316069,24.8461914 10.1188138,24.7500977 C7.94533793,23.6908203 5.54351724,23.6895508 3.36878621,24.7477539 C3.17133793,24.8438477 3.04929655,25.0500977 3.05827586,25.2714844 L3.10983448,26.5391602 C3.12692414,26.9550781 3.57395862,27.2038086 3.93091034,26.9963867 Z" id="Path" fill="#FC502A"></path>
                <path d="M10.1189103,24.7500977 C9.2258069,24.3148437 8.29417931,24.0585937 7.35550345,23.9807617 L7.35550345,26.2412109 C8.10107586,26.3306641 8.84124138,26.5826172 9.5562069,26.9987305 C9.91315862,27.2064453 10.3604828,26.9578125 10.3774759,26.5416016 L10.4290345,25.2737305 C10.4381103,25.0523437 10.3161655,24.8461914 10.1189103,24.7500977 Z" id="Path" fill="#E52D15"></path>
                <ellipse id="Oval" fill="#FC502A" cx="6.74336552" cy="33.3183594" rx="3.14777931" ry="3.18378906"></ellipse>
                <path d="M7.35550345,30.1948242 L7.3554069,36.4413086 C8.80107586,36.1533203 9.89153103,34.8646484 9.89153103,33.3180664 C9.89153103,31.7714844 8.80107586,30.4828125 7.35550345,30.1948242 Z" id="Path" fill="#E52D15"></path>
                <path d="M9.26143448,8.44775391 L4.22606897,8.44775391 C4.05594483,8.44775391 3.91797241,8.30820313 3.91797241,8.13613281 L3.91797241,6.02841797 C3.91797241,5.85634766 4.05594483,5.71679688 4.22606897,5.71679688 L9.26143448,5.71679688 C9.43155862,5.71679688 9.56953103,5.85634766 9.56953103,6.02841797 L9.56953103,8.13613281 C9.56953103,8.30820313 9.43155862,8.44775391 9.26143448,8.44775391 Z" id="Path" fill="#4A4256"></path>
                <path d="M21.6996138,37.8032227 L20.9305793,49.2670898 L25.3096828,49.2670898 C25.8562621,49.2670898 26.3094759,48.8387695 26.3464552,48.287207 L27.0497379,37.8032227 L21.6996138,37.8032227 L21.6996138,37.8032227 Z" id="Path" fill="#BFD8CE"></path>
                <path d="M26.0624,46.9351563 L17.9380552,46.9351563 C17.8010483,46.9351563 17.6713793,46.9015625 17.5569655,46.8419922 L17.6539034,48.287207 C17.6908828,48.8387695 18.1440966,49.2670898 18.6906759,49.2670898 L25.3096828,49.2670898 C25.8562621,49.2670898 26.3094759,48.8387695 26.3464552,48.287207 L26.4433931,46.8419922 C26.3289793,46.9015625 26.1994069,46.9351563 26.0624,46.9351563 Z" id="Path" fill="#DFEDE7"></path>
                <path d="M26.3464552,48.287207 L26.3650897,48.0089844 L26.4433931,46.8419922 C26.3289793,46.9016602 26.1993103,46.9351563 26.0623034,46.9351563 L21.0868966,46.9351563 L20.9304828,49.2670898 L25.3095862,49.2670898 C25.4121241,49.2670898 25.5112828,49.2520508 25.6050345,49.2239258 C25.6363172,49.2145508 25.6669241,49.2037109 25.6969517,49.1915039 C26.0568966,49.0452148 26.3187448,48.7008789 26.3464552,48.287207 Z" id="Path" fill="#D7E0DC"></path>
                <rect id="Rectangle" fill="#352F3F" x="4.44833103" y="8.44726562" width="4.58871724" height="2.29462891"></rect>
                <path d="M10.4411034,40.3841797 L3.0464,40.3841797 C2.6461931,40.3841797 2.32177931,40.0560547 2.32177931,39.6512695 C2.32177931,39.2464844 2.6461931,38.9183594 3.0464,38.9183594 L10.4411034,38.9183594 C10.8413103,38.9183594 11.1657241,39.2464844 11.1657241,39.6512695 C11.1657241,40.0560547 10.8413103,40.3841797 10.4411034,40.3841797 Z" id="Path" fill="#000000"></path>
                <path d="M10.4411034,43.6206055 L3.0464,43.6206055 C2.6461931,43.6206055 2.32177931,43.2924805 2.32177931,42.8876953 C2.32177931,42.4829102 2.6461931,42.1547852 3.0464,42.1547852 L10.4411034,42.1547852 C10.8413103,42.1547852 11.1657241,42.4829102 11.1657241,42.8876953 C11.1657241,43.2924805 10.8413103,43.6206055 10.4411034,43.6206055 Z" id="Path" fill="#000000"></path>
                <path d="M11.1015172,26.5716797 L11.1531724,25.3036133 C11.1740276,24.7894531 10.8915172,24.3129883 10.4334759,24.0898438 C8.05444138,22.9303711 5.43402759,22.9295898 3.05470345,24.0873047 C2.59617931,24.3105469 2.31347586,24.7871094 2.33442759,25.3015625 L2.38608276,26.5691406 C2.40452414,27.0224609 2.64986207,27.4239258 3.04253793,27.6429688 C3.43550345,27.8623047 3.90262069,27.8582031 4.29191724,27.6319336 C5.89583448,26.6999023 7.59128276,26.7005859 9.19491034,27.6338867 C9.39313103,27.7492188 9.61143448,27.8070313 9.83002759,27.8070313 C10.0407034,27.8070313 10.251669,27.7533203 10.4445793,27.6457031 C10.8374483,27.4266602 11.0830759,27.0251953 11.1015172,26.5716797 Z M9.66521379,26.2231445 C8.71755862,25.7208008 7.72964138,25.4696289 6.74162759,25.4696289 C5.75525517,25.4696289 4.7685931,25.7201172 3.8221931,26.2208984 L3.78704828,25.3585938 C5.69838621,24.4644531 7.78921379,24.4651367 9.70026207,25.3607422 L9.66521379,26.2231445 Z" id="Shape" fill="#000000"></path>
                <path d="M6.74375172,29.4013672 C4.60851034,29.4013672 2.87125517,31.1583984 2.87125517,33.3180664 C2.87125517,35.4777344 4.60841379,37.2348633 6.74375172,37.2348633 C8.8789931,37.2348633 10.6161517,35.477832 10.6161517,33.3180664 C10.6161517,31.1583984 8.8789931,29.4013672 6.74375172,29.4013672 Z M6.74375172,35.769043 C5.40757241,35.769043 4.32049655,34.6695312 4.32049655,33.3180664 C4.32049655,31.9666016 5.40757241,30.8671875 6.74375172,30.8671875 C8.07993103,30.8671875 9.16691034,31.9666992 9.16691034,33.3180664 C9.16691034,34.6695313 8.07993103,35.769043 6.74375172,35.769043 Z" id="Shape" fill="#000000"></path>
                <path d="M10.167669,16.2015625 C9.92078621,15.9444336 9.7802069,15.6097656 9.76504828,15.2536133 C9.76504828,15.2470703 9.76427586,15.2412109 9.76417931,15.2352539 C9.76369655,15.2203125 9.76205517,15.2054688 9.76205517,15.1904297 L9.76205517,9.04902344 C10.0790345,8.87050781 10.2940552,8.52841797 10.2940552,8.13613281 L10.2940552,6.02841797 C10.2940552,5.45244141 9.8308,4.98388672 9.26133793,4.98388672 L7.52051034,4.98388672 L7.52051034,3.32958984 C7.52051034,2.53271484 7.21376552,1.78359375 6.65666207,1.22021484 L5.66256552,0.214648438 C5.37966897,-0.0715820312 4.92085517,-0.0715820312 4.63786207,0.214648438 C4.35486897,0.500878906 4.35486897,0.96484375 4.63786207,1.25107422 L5.63195862,2.25664063 C5.91533793,2.54316406 6.07136552,2.92412109 6.07136552,3.32949219 L6.07136552,4.98378906 L4.22606897,4.98378906 C3.6566069,4.98378906 3.19335172,5.45234375 3.19335172,6.02832031 L3.19335172,8.13603516 C3.19335172,8.52783203 3.40798621,8.86943359 3.7241931,9.04814453 L3.7241931,15.1914063 C3.7241931,15.2056641 3.72255172,15.2196289 3.72216552,15.2338867 C3.72197241,15.240332 3.7212,15.246582 3.7212,15.2530273 C3.70633103,15.6100586 3.56565517,15.9452148 3.31828966,16.202832 L0.943503448,18.6780273 C0.3556,19.2908203 0.0317655172,20.0985352 0.0317655172,20.9525391 L0,26.0230469 C0,26.427832 1.48091034,26.427832 1.48091034,26.0230469 L1.4810069,20.9525391 C1.4810069,20.4818359 1.65943448,20.0366211 1.98355862,19.6989258 L4.35805517,17.2240234 C4.69637241,16.8717773 4.9362069,16.447168 5.06471724,15.9860352 L8.42191724,15.9860352 C8.55052414,16.4467773 8.79026207,16.8708984 9.1281931,17.2228516 L11.5031724,19.6958008 C11.8276828,20.0335938 12.0063034,20.4791016 12.0063034,20.9500977 L12.0060138,47.9512695 C12.0060138,48.2727539 11.7474483,48.5341797 11.4296966,48.5341797 L2.05722759,48.5341797 C1.73947586,48.5341797 1.48091034,48.2726563 1.48091034,47.9512695 L1.48091034,26.0230469 C1.48091034,25.6182617 0.0316689655,25.6182617 0.0316689655,26.0230469 L0.0316689655,47.9512695 C0.0316689655,49.080957 0.940317241,50 2.05713103,50 L11.4296,50 C12.5465103,50 13.4550621,49.080957 13.4550621,47.9512695 L13.4553517,20.9500977 C13.4553517,20.0955078 13.131131,19.2873047 12.5424552,18.6744141 L10.167669,16.2015625 Z M8.31291034,14.5202148 L5.17343448,14.5202148 L5.17343448,11.475293 L8.31291034,11.475293 L8.31291034,14.5202148 L8.31291034,14.5202148 Z M8.31291034,10.0094727 L5.17343448,10.0094727 L5.17343448,9.18066406 L8.31291034,9.18066406 L8.31291034,10.0094727 L8.31291034,10.0094727 Z M8.84491034,7.71484375 L4.6425931,7.71484375 L4.6425931,6.44960937 L8.84491034,6.44960937 L8.84491034,7.71484375 Z" id="Shape" fill="#000000"></path>
                <path d="M27.612731,33.9762695 C27.3638207,33.7069336 27.0120828,33.5524414 26.6476,33.5524414 L17.3528552,33.5524414 C16.9883724,33.5524414 16.6365379,33.7069336 16.3876276,33.9763672 C16.1388138,34.2458008 16.0102069,34.6112305 16.0349241,34.9790039 L16.9309241,48.3368164 C16.9935862,49.2694336 17.7665793,50 18.6906759,50 L25.3096828,50 C26.0316966,50 26.6597655,49.5532227 26.9304966,48.9133789 C27.0062897,48.7342773 27.0557241,48.5408203 27.0694345,48.3368164 L27.1663724,46.8916016 C27.1663724,46.8914063 27.1663724,46.8912109 27.1663724,46.8910156 L27.9654345,34.9790039 C27.9901517,34.6111328 27.8615448,34.2457031 27.612731,33.9762695 Z M25.6234759,48.2375977 C25.6164276,48.3428711 25.5584966,48.4333984 25.4751724,48.4859375 C25.4482345,48.5029297 25.4183034,48.5151367 25.3868276,48.5232422 C25.3619172,48.5296875 25.336331,48.5342773 25.3095862,48.5342773 L18.6906759,48.5342773 C18.5258621,48.5342773 18.3879862,48.4040039 18.3767862,48.2375977 L18.3385517,47.6681641 L25.6616138,47.6681641 L25.6234759,48.2375977 Z M26.3726207,37.0704102 L22.025669,37.0704102 C21.6254621,37.0704102 21.3010483,37.3985352 21.3010483,37.8033203 C21.3010483,38.2081055 21.6254621,38.5362305 22.025669,38.5362305 L26.274331,38.5362305 L25.7600966,46.2023438 L18.2403586,46.2023438 L17.7261241,38.5362305 L18.6542759,38.5362305 C19.0544828,38.5362305 19.3788966,38.2081055 19.3788966,37.8033203 C19.3788966,37.3985352 19.0544828,37.0704102 18.6542759,37.0704102 L17.6278345,37.0704102 L17.4901517,35.0182617 L26.5104,35.0182617 L26.3726207,37.0704102 Z" id="Shape" fill="#000000"></path>
            </g>
        </g>
    </g>
</svg>