<?xml version="1.0" encoding="UTF-8"?>
<svg width="35px" height="35px" viewBox="0 0 35 35" version="1.1" xmlns="http://www.w3.org/2000/svg" xmlns:xlink="http://www.w3.org/1999/xlink">
    <title>4B4031A3-EA18-48FA-89E0-08957458C580@1x</title>
    <g id="Page-1" stroke="none" stroke-width="1" fill="none" fill-rule="evenodd">
        <g transform="translate(-274.000000, -52.000000)" fill="#008DC0" fill-rule="nonzero">
            <path d="M308.590566,52 L308.590566,65.582377 L303.610736,65.582377 L303.61,60.361 L298.322738,65.754173 C299.779314,67.9315566 300.63171,70.5613352 300.63171,73.3903279 C300.63171,80.8797541 294.658229,86.9727049 287.316056,86.9727049 C279.973481,86.9727049 274,80.8797541 274,73.3903279 C274,65.9013115 279.973481,59.8083607 287.316056,59.8083607 C290.089191,59.8083607 292.667073,60.6775623 294.801589,62.1628907 L299.785,57.079 L295.27451,57.0794262 L295.27451,52 L308.590566,52 Z M287.316056,64.8881148 C282.719544,64.8881148 278.97991,68.7022131 278.97991,73.3906557 C278.97991,78.0790984 282.719222,81.8935246 287.316056,81.8935246 C291.912247,81.8935246 295.652202,78.0794262 295.652202,73.3906557 C295.65188,68.7022131 291.912167,64.8881148 287.316056,64.8881148 Z" id="male-icon"></path>
        </g>
    </g>
</svg>