<?xml version="1.0" encoding="UTF-8"?>
<svg width="23px" height="50px" viewBox="0 0 23 50" version="1.1" xmlns="http://www.w3.org/2000/svg" xmlns:xlink="http://www.w3.org/1999/xlink">
    <title>59A3B4A5-B2A6-4890-9BBC-C75AFAD0E8C0@1x</title>
    <g id="Page-1" stroke="none" stroke-width="1" fill="none" fill-rule="evenodd">
        <g transform="translate(-119.000000, -44.000000)" fill-rule="nonzero">
            <g id="wine-icon" transform="translate(119.000000, 44.000000)">
                <polygon id="Path" fill="#C9F3FF" points="19.7516837 49.0234375 11.4891568 44.9539185 3.22624262 49.0234375"></polygon>
                <path d="M21.7905947,17.6094055 C22.124798,15.4575348 22.0275963,13.2621766 21.5047987,11.1469269 L19.1727337,1.70898438 L7.45625678,1.70898438 L4.94295528,11.8793487 C4.42015765,13.9945984 4.32334321,16.1899566 4.65715916,18.3418273 C5.38675247,23.0411529 8.1180799,27.2102355 12.1649212,29.800415 L12.6520912,30.1124572 L14.28322,29.0679932 C18.329674,26.4778137 21.0613887,22.3087311 21.7905947,17.6094055 Z" id="Path" fill="#C9F3FF"></path>
                <path d="M21.7905947,17.6094055 C22.0787143,15.7539367 22.0446356,13.8664246 21.6949421,12.0258331 L4.79424838,12.0258331 C4.27145075,14.1410828 4.17463631,16.336441 4.50845227,18.4883117 C5.23804558,23.1876373 7.969373,27.3567199 12.0162143,29.9468994 L12.4631095,30.2333832 L14.28322,29.0679932 C18.329674,26.4778137 21.0613887,22.3087311 21.7905947,17.6094055 Z" id="Path" fill="#D0021B"></path>
                <path d="M14.8234443,29.8870087 C19.1026401,27.1476746 21.9993265,22.7264404 22.7707435,17.7570343 C23.126246,15.4678345 23.0243973,13.1660461 22.4682954,10.9157562 L19.9549939,0.74577334 C19.846949,0.307846094 19.4488484,0 18.9914971,0 L3.9864292,0 C3.52907797,0 3.13136454,0.307846094 3.02331966,0.74577334 L0.510018159,10.9157562 C-0.0460836724,13.1660461 -0.147932431,15.4678345 0.20718281,17.7574158 C0.978599836,22.7268219 3.87528626,27.1476746 8.15486929,29.8870087 L10.4977775,31.3865662 L10.4977775,44.3504334 L2.78283266,48.1498719 C2.37156519,48.3524322 2.15586277,48.8071441 2.26158405,49.2477417 C2.36730534,49.6887207 2.76656789,50 3.22624262,50 L19.7516837,50 C20.2113585,50 20.6110082,49.6887207 20.7163423,49.2477417 C20.8220636,48.8071441 20.6063612,48.3528137 20.1950936,48.1498719 L12.4805361,44.3504334 L12.4805361,31.3865662 L14.8234443,29.8870087 Z M4.76559128,1.953125 L18.2127223,1.953125 L20.2435008,10.1703644 L2.73481282,10.1703644 L4.76559128,1.953125 Z M2.16748044,17.4617768 C1.89059128,15.6780243 1.92583174,13.8858795 2.27126547,12.1234894 L20.7066609,12.1234894 C21.0524818,13.8858795 21.0877223,15.6780243 20.8108331,17.4617768 C20.125,21.881485 17.5485756,25.8132935 13.7429957,28.2493592 L11.4891568,29.6920776 L9.23531789,28.2493592 C5.42935075,25.8132935 2.85331358,21.881485 2.16748044,17.4617768 Z M7.42605065,48.046875 L11.4891568,46.0456848 L15.5522629,48.046875 L7.42605065,48.046875 Z" id="Shape" fill="#000000"></path>
                <path d="M13.654701,25.6202697 C13.8886045,25.6202697 14.1232826,25.5390167 14.311877,25.3746033 C16.4483768,23.5088349 17.9354458,21.0796356 18.6127593,18.3490753 C18.7428779,17.8253174 18.4171943,17.2966004 17.8851024,17.168808 C17.3530105,17.0410156 16.8166588,17.3618316 16.6869275,17.8855896 C16.1056539,20.2281952 14.8296404,22.3125458 12.9967504,23.9128113 C12.5870319,24.2706299 12.549468,24.8878479 12.9127155,25.2914429 C13.1082806,25.5092621 13.3809099,25.6202697 13.654701,25.6202697 Z" id="Path" fill="#000000"></path>
                <path d="M17.9826913,15.3770447 C18.2433156,15.3770447 18.4989056,15.273285 18.6836275,15.0917053 C18.867962,14.9093628 18.9740706,14.6583557 18.9740706,14.4004822 C18.9740706,14.1433716 18.867962,13.8916016 18.6836275,13.710022 C18.4989056,13.5284424 18.2433156,13.4239197 17.9826913,13.4239197 C17.7216796,13.4239197 17.4660898,13.5284424 17.2817551,13.710022 C17.0974206,13.8916016 16.991312,14.1433716 16.991312,14.4004822 C16.991312,14.6583557 17.0974206,14.9093628 17.2817551,15.0917053 C17.4660898,15.273285 17.7216796,15.3770447 17.9826913,15.3770447 Z" id="Path" fill="#000000"></path>
            </g>
        </g>
    </g>
</svg>